PathFileType	4	(X / Y / Z)	Demo_145623_11_September_2019	Demo_145623_11_September_2019.trc
DataRate	CameraRate	NumFrames	NumMarkers	Units	OrigDataRate	OrigDataStartFrame	OrigNumFrames
50	50	8	25	m	50	152	820
Frame#	Time		SpineBase		SpineMid		Neck		Head		ShoulderLeft		ElbowLeft		WristLeft		HandLeft		ShoulderRight		ElbowRight		WristRight		HandRight		HipLeft		KneeLeft		AnkleLeft		FootLeft		HipRight		KneeRight		AnkleRight		FootRight		SpineShoulder		HandTipLeft		LeftThumb		HandTipRight		ThumbRight		
X1	Y1	Z1	X2	Y2	Z2	X3	Y3	Z3	X4	Y4	Z4	X5	Y5	Z5	X6	Y6	Z6	X7	Y7	Z7	X8	Y8	Z8	X9	Y9	Z9	X10	Y10	Z10	X11	Y11	Z11	X12	Y12	Z12	X13	Y13	Z13	X14	Y14	Z14	X15	Y15	Z15	X16	Y16	Z16	X17	Y17	Z17	X18	Y18	Z18	X19	Y19	Z19	X20	Y20	Z20	X21	Y21	Z21	X22	Y22	Z22	X23	Y23	Z23	X24	Y24	Z24	X25	Y25	Z25	
103	25.017	0.017	0.806	1.744	0.007	1.082	1.715	-0.004	1.347	1.675	0.011	1.485	1.636	-0.153	1.246	1.652	-0.186	0.997	1.645	-0.213	0.804	1.600	-0.238	0.736	1.591	0.146	1.232	1.680	0.192	0.957	1.722	0.245	0.787	1.755	0.245	0.714	1.760	-0.055	0.810	1.700	-0.103	0.510	1.738	-0.095	0.147	1.882	-0.092	0.125	1.824	0.089	0.810	1.723	0.107	0.516	1.796	0.085	0.213	1.928	0.094	0.165	1.819	-0.001	1.282	1.687	-0.217	0.671	1.587	-0.250	0.741	1.590	0.251	0.596	1.779	0.216	0.677	1.769
104	25.033	0.017	0.806	1.744	0.007	1.082	1.715	-0.004	1.347	1.675	0.011	1.485	1.636	-0.153	1.246	1.652	-0.186	0.997	1.645	-0.213	0.804	1.600	-0.238	0.736	1.591	0.146	1.232	1.680	0.192	0.957	1.722	0.245	0.787	1.755	0.245	0.714	1.760	-0.055	0.810	1.700	-0.103	0.510	1.738	-0.095	0.147	1.882	-0.092	0.125	1.824	0.089	0.810	1.723	0.107	0.516	1.796	0.085	0.213	1.928	0.094	0.165	1.819	-0.001	1.282	1.687	-0.217	0.671	1.587	-0.250	0.741	1.590	0.251	0.596	1.779	0.216	0.677	1.769
105	25.050	0.013	0.804	1.743	0.001	1.080	1.714	-0.010	1.346	1.674	0.006	1.484	1.635	-0.157	1.246	1.651	-0.192	0.996	1.644	-0.229	0.807	1.600	-0.253	0.735	1.594	0.138	1.228	1.677	0.178	0.960	1.720	0.191	0.732	1.756	0.192	0.661	1.778	-0.060	0.807	1.701	-0.107	0.507	1.738	-0.096	0.145	1.885	-0.093	0.122	1.828	0.084	0.808	1.722	0.103	0.513	1.797	0.085	0.212	1.928	0.094	0.164	1.819	-0.007	1.281	1.686	-0.236	0.671	1.590	-0.266	0.743	1.594	0.173	0.549	1.803	0.132	0.631	1.753
106	25.067	0.013	0.804	1.743	0.001	1.080	1.714	-0.010	1.346	1.674	0.006	1.484	1.635	-0.157	1.246	1.651	-0.192	0.996	1.644	-0.229	0.807	1.600	-0.253	0.735	1.594	0.138	1.228	1.677	0.178	0.960	1.720	0.191	0.732	1.756	0.192	0.661	1.778	-0.060	0.807	1.701	-0.107	0.507	1.738	-0.096	0.145	1.885	-0.093	0.122	1.828	0.084	0.808	1.722	0.103	0.513	1.797	0.085	0.212	1.928	0.094	0.164	1.819	-0.007	1.281	1.686	-0.236	0.671	1.590	-0.266	0.743	1.594	0.173	0.549	1.803	0.132	0.631	1.753
107	25.083	0.007	0.802	1.743	-0.004	1.079	1.714	-0.015	1.345	1.672	0.001	1.484	1.635	-0.161	1.245	1.650	-0.198	0.995	1.644	-0.243	0.811	1.601	-0.264	0.736	1.597	0.133	1.225	1.675	0.170	0.963	1.717	0.234	0.801	1.741	0.243	0.725	1.748	-0.064	0.805	1.701	-0.111	0.505	1.739	-0.096	0.145	1.887	-0.094	0.122	1.831	0.079	0.806	1.721	0.099	0.512	1.797	0.084	0.212	1.928	0.093	0.164	1.819	-0.012	1.280	1.685	-0.249	0.671	1.594	-0.279	0.744	1.597	0.214	0.631	1.762	0.213	0.700	1.719
108	25.100	0.007	0.802	1.743	-0.004	1.079	1.714	-0.015	1.345	1.672	0.001	1.484	1.635	-0.161	1.245	1.650	-0.198	0.995	1.644	-0.243	0.811	1.601	-0.264	0.736	1.597	0.133	1.225	1.675	0.170	0.963	1.717	0.234	0.801	1.741	0.243	0.725	1.748	-0.064	0.805	1.701	-0.111	0.505	1.739	-0.096	0.145	1.887	-0.094	0.122	1.831	0.079	0.806	1.721	0.099	0.512	1.797	0.084	0.212	1.928	0.093	0.164	1.819	-0.012	1.280	1.685	-0.249	0.671	1.594	-0.279	0.744	1.597	0.214	0.631	1.762	0.213	0.700	1.719
109	25.117	0.001	0.800	1.742	-0.009	1.077	1.713	-0.020	1.345	1.671	-0.003	1.484	1.634	-0.165	1.244	1.649	-0.205	0.995	1.644	-0.253	0.813	1.603	-0.272	0.736	1.599	0.129	1.224	1.673	0.184	0.985	1.705	0.278	0.837	1.727	0.304	0.759	1.732	-0.070	0.803	1.701	-0.115	0.503	1.740	-0.097	0.146	1.887	-0.094	0.121	1.825	0.073	0.804	1.719	0.097	0.511	1.797	0.083	0.212	1.927	0.092	0.164	1.819	-0.017	1.279	1.684	-0.259	0.671	1.596	-0.289	0.746	1.600	0.280	0.678	1.746	0.272	0.721	1.697
110	25.134	0.001	0.800	1.742	-0.009	1.077	1.713	-0.020	1.345	1.671	-0.003	1.484	1.634	-0.165	1.244	1.649	-0.205	0.995	1.644	-0.253	0.813	1.603	-0.272	0.736	1.599	0.129	1.224	1.673	0.184	0.985	1.705	0.278	0.837	1.727	0.304	0.759	1.732	-0.070	0.803	1.701	-0.115	0.503	1.740	-0.097	0.146	1.887	-0.094	0.121	1.825	0.073	0.804	1.719	0.097	0.511	1.797	0.083	0.212	1.927	0.092	0.164	1.819	-0.017	1.279	1.684	-0.259	0.671	1.596	-0.289	0.746	1.600	0.280	0.678	1.746	0.272	0.721	1.697
